<svg xmlns="http://www.w3.org/2000/svg" viewBox="0 0 36.19 247.38">
    <g data-name="Слой 2">
        <g data-name="Layer 1">
            <g data-name="1">
                <path d="M26.36 0l-8.27 15.3L9.82 0H0v36.19h9.3V16.02l5.58 9.96h6.43l5.57-9.96v20.17h9.31V0h-9.83zM0 67.93V39.25h36.19v28.68H29V48.55h-7V63.8h-7.27V48.55H7.24v19.38zm36.19 13.48V71.06L18.09 82.7 0 70.81v10.33l11.37 7.24L0 95.62V106l18.09-11.93 18.1 11.63V95.41l-11.38-7z"/>
                <path d="M22.48 103.64H13.7L0 139.82h10.08l2.33-6.46h11.37l2.32 6.46h10.09zm-3.61 23h-4.14l3.36-9.87 3.36 9.87zm17.32 47.61V165H21.44v-13h14.75v-9.31H0V152h14.21v13H0v9.3zM0 212.93h9.82L26.88 190v22.9h9.31v-36.15h-9.83l-17 22.9v-22.9H0zm36.19 11.91v-9.3H0v9.3h14.21v4.66L0 237.56v9.82l17.83-10.13 18.36 10.08v-9.82l-14.75-8v-4.66z"/>
            </g>
        </g>
    </g>
</svg>