<svg xmlns="http://www.w3.org/2000/svg" viewBox="0 0 36.19 247.38">
    <title>Ресурс 13</title>
    <g id="Слой_2" data-name="Слой 2">
        <g id="Layer_1" data-name="Layer 1">
            <g id="_1" data-name="1">
                <g id="Logo">
                    <polygon
                            points="26.36 0 18.09 15.3 9.82 0 0 0 0 36.19 9.3 36.19 9.3 16.02 14.88 25.98 21.31 25.98 26.88 16.02 26.88 36.19 36.19 36.19 36.19 0 26.36 0"/>
                    <path d="M0,67.93V39.25H36.19V67.93H29V48.55H22V63.8H14.73V48.55H7.24V67.93Z"/>
                    <path d="M36.19,81.41V71.06L18.09,82.7,0,70.81V81.14l11.37,7.24L0,95.62V106L18.09,94.07l18.1,11.63V95.41l-11.38-7Z"/>
                    <path d="M22.48,103.64H13.7L0,139.82H10.08l2.33-6.46H23.78l2.32,6.46H36.19Zm-3.61,23H14.73l3.36-9.87,3.36,9.87Z"/>
                    <path d="M36.19,174.25V165H21.44V152H36.19v-9.31H0V152H14.21V165H0v9.3Z"/>
                    <path d="M0,212.93H9.82L26.88,190v22.9h9.31V176.75H26.36l-17,22.9v-22.9H0Z"/>
                    <path d="M36.19,224.84v-9.3H0v9.3H14.21v4.66L0,237.56v9.82l17.83-10.13,18.36,10.08v-9.82l-14.75-8v-4.66Z"/>
                </g>
            </g>
        </g>
    </g>
</svg>